<?xml version="1.0" encoding="utf-8"?>
<!-- Generator: Adobe Illustrator 17.0.0, SVG Export Plug-In . SVG Version: 6.00 Build 0)  -->
<!DOCTYPE svg PUBLIC "-//W3C//DTD SVG 1.1//EN" "http://www.w3.org/Graphics/SVG/1.1/DTD/svg11.dtd">
<svg version="1.1" xmlns="http://www.w3.org/2000/svg" xmlns:xlink="http://www.w3.org/1999/xlink" x="0px" y="0px" width="612px"
	 height="792px" viewBox="0 0 612 792" enable-background="new 0 0 612 792" xml:space="preserve">
<g id="Layer_1">
	<rect fill="#F9F8D5" width="612" height="792"/>
	<rect x="60.538" y="51" fill="#FFFFFF" stroke="#000000" width="216.001" height="216"/>
	<rect x="316.538" y="51" fill="#FFFFFF" stroke="#000000" width="216" height="216"/>
	<rect x="60.538" y="286.873" fill="#FFFFFF" stroke="#000000" width="216.001" height="216"/>
	<rect x="316.538" y="286.873" fill="#FFFFFF" stroke="#000000" width="216" height="216"/>
	<rect x="60.538" y="522.587" fill="#FFFFFF" stroke="#000000" width="216.001" height="216"/>
	<rect x="316.538" y="522.587" fill="#FFFFFF" stroke="#000000" width="216" height="216"/>
</g>
<g id="Layer_2">
	<circle cx="168.538" cy="146.38" r="61.905"/>
	<circle cx="122.317" cy="349.16" r="41.667"/>
	<circle cx="232.427" cy="467.413" r="17.857"/>
	<g>
		<circle cx="364.475" cy="467.384" r="17.857"/>
		<circle cx="406.873" cy="467.384" r="17.857"/>
		<circle cx="491.667" cy="467.384" r="17.857"/>
		<circle cx="449.269" cy="467.384" r="17.857"/>
	</g>
	<g>
		<g>
			<circle cx="104.943" cy="561.539" r="17.857"/>
			<circle cx="147.34" cy="561.539" r="17.857"/>
			<circle cx="232.134" cy="561.539" r="17.857"/>
			<circle cx="189.737" cy="561.539" r="17.857"/>
		</g>
		<g>
			<circle cx="104.943" cy="607.57" r="17.857"/>
			<circle cx="147.34" cy="607.57" r="17.857"/>
			<circle cx="232.134" cy="607.57" r="17.857"/>
			<circle cx="189.737" cy="607.57" r="17.857"/>
		</g>
		<g>
			<circle cx="104.943" cy="653.602" r="17.857"/>
			<circle cx="147.34" cy="653.602" r="17.857"/>
			<circle cx="232.134" cy="653.602" r="17.857"/>
			<circle cx="189.737" cy="653.602" r="17.857"/>
		</g>
		<g>
			<circle cx="104.943" cy="699.633" r="17.857"/>
			<circle cx="147.34" cy="699.633" r="17.857"/>
			<circle cx="232.134" cy="699.633" r="17.857"/>
			<circle cx="189.737" cy="699.633" r="17.857"/>
		</g>
	</g>
	<g>
		<g>
			<circle cx="361.134" cy="566.698" r="17.856"/>
			<circle cx="403.531" cy="566.698" r="17.857"/>
			<circle cx="488.325" cy="566.698" r="17.856"/>
			<circle cx="445.928" cy="566.698" r="17.857"/>
		</g>
		<g>
			<circle cx="361.134" cy="612.729" r="17.856"/>
			<circle cx="403.531" cy="612.729" r="17.857"/>
			<circle cx="488.325" cy="612.729" r="17.856"/>
			<circle cx="445.928" cy="612.729" r="17.857"/>
		</g>
		<g>
			<circle cx="361.134" cy="658.761" r="17.856"/>
			<circle cx="403.531" cy="658.761" r="17.857"/>
			<circle cx="488.325" cy="658.761" r="17.856"/>
			<path fill="#5CD1FF" d="M447.804,676.494c-9.862,0-17.857-7.994-17.857-17.857c0-9.861,7.995-17.857,17.857-17.857
				c9.861,0-1.145,7.996-1.145,17.857C446.66,668.5,457.665,676.494,447.804,676.494z"/>
		</g>
		<g>
			<circle cx="361.134" cy="704.792" r="17.856"/>
			<circle cx="403.531" cy="704.792" r="17.857"/>
			<circle cx="488.325" cy="704.792" r="17.856"/>
			<circle cx="445.928" cy="704.792" r="17.857"/>
		</g>
	</g>
	<circle cx="468.261" cy="204.223" r="37.789"/>
	<circle cx="374.517" cy="113.778" r="37.789"/>
</g>
<g id="Layer_3">
</g>
</svg>
