<?xml version="1.0" encoding="utf-8"?>
<!-- Generator: Adobe Illustrator 16.0.0, SVG Export Plug-In . SVG Version: 6.00 Build 0)  -->
<!DOCTYPE svg PUBLIC "-//W3C//DTD SVG 1.1//EN" "http://www.w3.org/Graphics/SVG/1.1/DTD/svg11.dtd">
<svg version="1.1"
	 id="svg2" xmlns:svg="http://www.w3.org/2000/svg" xmlns:rdf="http://www.w3.org/1999/02/22-rdf-syntax-ns#" xmlns:dc="http://purl.org/dc/elements/1.1/" xmlns:inkscape="http://www.inkscape.org/namespaces/inkscape" xmlns:sodipodi="http://sodipodi.sourceforge.net/DTD/sodipodi-0.dtd" xmlns:cc="http://creativecommons.org/ns#" inkscape:version="0.48.0 r9654" sodipodi:docname="lemmling_Cartoon_owl.svg"
	 xmlns="http://www.w3.org/2000/svg" xmlns:xlink="http://www.w3.org/1999/xlink" x="0px" y="0px" width="377.916px"
	 height="369.676px" viewBox="0 0 377.916 369.676" enable-background="new 0 0 377.916 369.676" xml:space="preserve">
<linearGradient id="path3226_1_" gradientUnits="userSpaceOnUse" x1="154.6572" y1="103.6392" x2="154.6572" y2="95.3836" gradientTransform="matrix(1.7813 0 0 -1.7055 -105.7397 522.4327)">
	<stop  offset="0" style="stop-color:#FFB142"/>
	<stop  offset="1" style="stop-color:#C87600"/>
</linearGradient>
<path id="path3226" fill="url(#path3226_1_)" stroke="#000000" stroke-width="2.8687" stroke-linecap="round" stroke-linejoin="round" d="
	M184,344.152c0,12.715-6.38,23.023-14.25,23.023s-14.25-10.309-14.25-23.023c0-12.716,6.38-23.023,14.25-23.023
	S184,331.437,184,344.152z"/>
<linearGradient id="path3228_1_" gradientUnits="userSpaceOnUse" x1="154.6562" y1="103.6392" x2="154.6562" y2="95.3836" gradientTransform="matrix(1.7813 0 0 -1.7055 -140.2397 522.4327)">
	<stop  offset="0" style="stop-color:#FFB142"/>
	<stop  offset="1" style="stop-color:#C87600"/>
</linearGradient>
<path id="path3228" fill="url(#path3228_1_)" stroke="#000000" stroke-width="2.8687" stroke-linecap="round" stroke-linejoin="round" d="
	M149.5,344.152c0,12.715-6.38,23.023-14.25,23.023S121,356.867,121,344.152c0-12.716,6.38-23.023,14.25-23.023
	S149.5,331.437,149.5,344.152z"/>
<linearGradient id="path3230_1_" gradientUnits="userSpaceOnUse" x1="154.6572" y1="103.6392" x2="154.6572" y2="95.3836" gradientTransform="matrix(1.7813 0 0 -1.7055 -123.2397 522.4327)">
	<stop  offset="0" style="stop-color:#FFB142"/>
	<stop  offset="1" style="stop-color:#C87600"/>
</linearGradient>
<path id="path3230" fill="url(#path3230_1_)" stroke="#000000" stroke-width="2.8687" stroke-linecap="round" stroke-linejoin="round" d="
	M166.5,344.152c0,12.715-6.38,23.023-14.25,23.023S138,356.867,138,344.152c0-12.716,6.38-23.023,14.25-23.023
	S166.5,331.437,166.5,344.152z"/>
<linearGradient id="path3224_1_" gradientUnits="userSpaceOnUse" x1="154.6562" y1="103.6392" x2="154.6562" y2="95.3836" gradientTransform="matrix(1.7813 0 0 -1.7055 -28.7397 522.4327)">
	<stop  offset="0" style="stop-color:#FFB142"/>
	<stop  offset="1" style="stop-color:#C87600"/>
</linearGradient>
<path id="path3224" fill="url(#path3224_1_)" stroke="#000000" stroke-width="2.8687" stroke-linecap="round" stroke-linejoin="round" d="
	M261,344.152c0,12.715-6.38,23.023-14.25,23.023s-14.25-10.309-14.25-23.023c0-12.716,6.38-23.023,14.25-23.023
	S261,331.437,261,344.152z"/>
<linearGradient id="path3220_1_" gradientUnits="userSpaceOnUse" x1="154.6567" y1="103.6392" x2="154.6567" y2="95.3836" gradientTransform="matrix(1.7813 0 0 -1.7055 -63.2397 522.4327)">
	<stop  offset="0" style="stop-color:#FFB142"/>
	<stop  offset="1" style="stop-color:#C87600"/>
</linearGradient>
<path id="path3220" fill="url(#path3220_1_)" stroke="#000000" stroke-width="2.8687" stroke-linecap="round" stroke-linejoin="round" d="
	M226.5,344.152c0,12.715-6.38,23.023-14.25,23.023S198,356.867,198,344.152c0-12.716,6.38-23.023,14.25-23.023
	S226.5,331.437,226.5,344.152z"/>
<linearGradient id="path3222_1_" gradientUnits="userSpaceOnUse" x1="154.6567" y1="103.6392" x2="154.6567" y2="95.3836" gradientTransform="matrix(1.7813 0 0 -1.7055 -46.2397 522.4327)">
	<stop  offset="0" style="stop-color:#FFB142"/>
	<stop  offset="1" style="stop-color:#C87600"/>
</linearGradient>
<path id="path3222" fill="url(#path3222_1_)" stroke="#000000" stroke-width="2.8687" stroke-linecap="round" stroke-linejoin="round" d="
	M243.5,344.152c0,12.715-6.38,23.023-14.25,23.023S215,356.867,215,344.152c0-12.716,6.38-23.023,14.25-23.023
	S243.5,331.437,243.5,344.152z"/>
<path id="path3250" fill-opacity="0.3137" d="M135.25,321.125c-5.807,0-10.78,5.631-13,13.688
	c18.971,5.074,39.814,8.034,61.719,8.438c-0.298-12.285-6.543-22.125-14.219-22.125c-3.301,0-6.333,1.828-8.75,4.875
	c-2.417-3.047-5.449-4.875-8.75-4.875c-3.186,0-6.126,1.705-8.5,4.562C141.376,322.83,138.436,321.125,135.25,321.125z
	 M212.25,321.125c-7.656,0-13.891,9.791-14.219,22.031c21.88-0.704,42.616-3.983,61.438-9.344
	c-2.347-7.516-7.157-12.688-12.719-12.688c-3.301,0-6.333,1.828-8.75,4.875c-2.417-3.047-5.449-4.875-8.75-4.875
	c-3.186,0-6.126,1.705-8.5,4.562C218.376,322.83,215.436,321.125,212.25,321.125z"/>
<path id="path2385" fill="#784421" stroke="#000000" stroke-width="5" stroke-linecap="round" d="M354.658,168.064
	c0,91.439-74.126,165.565-165.564,165.565c-91.438,0-165.564-74.126-165.564-165.565C23.53,76.625,97.656,2.5,189.094,2.5
	C280.532,2.5,354.658,76.625,354.658,168.064z"/>
<path id="path3167" fill="#FFFFFF" stroke="#000000" stroke-width="4.4118" stroke-linecap="round" stroke-linejoin="round" d="
	M270.933,250.846c-26.5-4.923-2.248,21.632-6.312,31.233c-16.063-7.898-9.942,18.25-17.206,25.514
	c-13.764-0.735-15.912,13.144-25.514,17.206c-11.602-6.436-20.156,6.312-31.233,6.312c-11.076,0-17.631-12.247-31.233-6.312
	c-9.602-4.062-11.75-17.441-25.514-17.206c-7.264-7.264-6.143-34.912-17.207-25.514c-4.063-9.602,14.689-38.156-6.311-31.233
	c0-11.076,22.248-31.631,6.311-31.232c4.063-9.602,24.442-16.75,17.207-25.514c14.528-14.528,34.594-23.518,56.747-23.518
	c22.153,0,42.219,8.99,56.747,23.518c-10.736,5.264,13.143,15.912,17.206,25.514C246.685,218.715,270.933,239.77,270.933,250.846z"
	/>
<path id="path3211" fill-opacity="0.3137" d="M335.375,90.5c1.98,10.232,3.031,20.785,3.031,31.594c0,3.73-0.132,7.425-0.375,11.094
	c-3.673-0.183-7.578,0.019-11.75,0.625c-35.216,7.499-20.173,51.664-29.344,97.875c-30.343,34.328-74.71,55.969-124.094,55.969
	c-30.373,0-58.832-8.207-83.312-22.5c-23.679-55.442,8.076-115.665-33.656-126.062c-46.11-8.325-63.971,34.456-34.156,98.562
	c16.461,35.395,43.723,52.779,63.781,59.531c28.363,22.801,64.392,36.438,103.594,36.438c45.95,0,87.558-18.739,117.562-49
	c17.453-8.717,36.861-24.595,50.344-51.156c25.213-49.671,20.385-87.079-5.469-97.438C348.361,119.896,342.865,104.589,335.375,90.5
	z"/>
<path id="path3169" fill="#784421" stroke="#000000" stroke-width="5" d="M55.736,131.045c48.111,17.3-14.163,94.143,37.819,161.191
	c9.608,12.394-57.868,2.092-81.723-66.584C-11.365,158.866,10.701,118.113,55.736,131.045z"/>
<path id="path3800" fill="#784421" stroke="#000000" stroke-width="5" d="M322.179,131.045
	c-48.111,17.3,14.164,94.143-37.818,161.191c-9.609,12.394,57.867,2.092,81.723-66.584
	C389.281,158.866,367.215,118.113,322.179,131.045z"/>
<path id="path2413" fill="#784421" stroke="#000000" stroke-width="5" stroke-linecap="round" stroke-linejoin="round" d="
	M304.504,121.998c13.389-4.609,27.221,7.584,29.865,14.18c-13.513-3.453-19.72-4.426-23.219-1.381
	c1.507,3.371,17.408,6.742,22.338,28.871c-12.429-8.617-22.304-18.576-26.272-14.483c2.882,5.034,6.199,14.498,3.964,23.881
	c-7.142-9.424-14.438-19.378-21.142-19.647"/>
<path id="path2387" fill="#FFFFFF" stroke="#000000" stroke-width="5" stroke-linecap="round" d="M143.143,40.264
	c-31.234,0-56.603,29.331-56.603,65.472c0,36.14,25.369,65.472,56.603,65.472c18.356,0,34.645-10.141,44.985-25.83
	c10.34,15.7,26.664,25.83,45.027,25.83c31.234,0,56.604-29.332,56.604-65.472c0-36.141-25.369-65.472-56.604-65.472
	c-18.361,0-34.688,10.132-45.027,25.83C177.788,50.408,161.497,40.264,143.143,40.264z"/>
<path id="path3407" fill-opacity="0.3137" d="M189.843,151.173c-9.288,0-19.384,10.327-18.98,16.85s16.557,33.7,20.191,33.7
	c3.635,0,17.769-26.634,17.365-34.244C208.015,159.87,195.899,150.629,189.843,151.173z"/>
<linearGradient id="path2391_1_" gradientUnits="userSpaceOnUse" x1="411.1123" y1="-219.4375" x2="424.347" y2="-219.4375" gradientTransform="matrix(0.6415 0 0 -0.7781 -78.4297 -7.4159)">
	<stop  offset="0" style="stop-color:#FFB142"/>
	<stop  offset="1" style="stop-color:#C87600"/>
</linearGradient>
<path id="path2391" fill="url(#path2391_1_)" stroke="#000000" stroke-width="5" d="M187.721,140.564
	c-9.288,0-19.383,9.306-18.979,15.184c0.404,5.877,16.557,30.367,20.191,30.367c3.635,0,17.769-24,17.365-30.857
	C205.894,148.401,193.778,140.074,187.721,140.564z"/>
<path id="path2411" stroke="#000000" stroke-width="3.1693" stroke-linecap="round" d="M184.552,110.165
	c0,9.05-7.337,16.387-16.387,16.387s-16.387-7.336-16.387-16.387c0-9.051,7.337-16.387,16.387-16.387
	S184.552,101.114,184.552,110.165z"/>
<path id="path3193" fill="#784421" stroke="#000000" stroke-width="5" stroke-linecap="round" stroke-linejoin="round" d="
	M73.144,121.998c-13.389-4.609-27.221,7.584-29.865,14.18c13.512-3.453,19.72-4.426,23.218-1.381
	c-1.507,3.371-17.408,6.742-22.337,28.871c12.429-8.617,22.304-18.576,26.272-14.483c-2.881,5.034-6.199,14.498-3.963,23.881
	c7.142-9.424,14.438-19.378,21.142-19.647"/>
<path id="path3283" fill="#FFFFFF" stroke="#000000" stroke-width="5" stroke-linejoin="round" d="M201.971,51.283
	c13.276-32.16,35.665-36.513,35.665-36.513s-12.453,16.775-1.174,12.109c17.465-7.226,72.997,15.418,72.997,15.418
	S235.884,25.17,201.971,51.283z"/>
<path id="path3285" fill="#FFFFFF" stroke="#000000" stroke-width="5" stroke-linejoin="round" d="M171.529,48.283
	c-13.276-32.16-35.666-36.513-35.666-36.513s12.454,16.775,1.174,12.109c-17.465-7.226-72.997,15.418-72.997,15.418
	S137.616,22.17,171.529,48.283z"/>
<path id="path3301" stroke="#000000" stroke-width="3.1693" stroke-linecap="round" d="M226.052,110.165
	c0,9.05-7.336,16.387-16.387,16.387s-16.387-7.336-16.387-16.387c0-9.051,7.336-16.387,16.387-16.387
	S226.052,101.114,226.052,110.165z"/>
<path id="path3341" fill="#FFFFFF" d="M166.5,104.426c0,2.347-1.903,4.25-4.25,4.25s-4.25-1.903-4.25-4.25s1.903-4.25,4.25-4.25
	S166.5,102.079,166.5,104.426z"/>
<path id="path3343" fill="#FFFFFF" d="M208,104.426c0,2.347-1.903,4.25-4.25,4.25s-4.25-1.903-4.25-4.25s1.903-4.25,4.25-4.25
	S208,102.079,208,104.426z"/>
<path id="path3200" fill-opacity="0.3137" d="M337.938,128.656c-0.412,0-0.832,0.021-1.25,0.031
	c16.212,13.064,23.073,43.297,14.781,85.344c-11.023,55.895-53.577,80.008-67.719,81.281c4.593,6.526,60.971-8.126,82.344-69.656
	C386.393,167.219,372.015,128.706,337.938,128.656z"/>
<path id="path3205" fill-opacity="0.3137" d="M4.062,160.844c-3.452,16.506-1.298,38.673,7.781,64.812
	c23.855,68.676,91.327,78.986,81.719,66.594c-4.109-5.3-7.521-10.674-10.312-16.062c-18.952-4.541-54.048-24.376-69.906-70.031
	C7.464,189.229,4.49,173.976,4.062,160.844z M75.344,167.188c-0.883,8.536-1.856,17.612-2.281,27.125
	C74.056,184.522,75.142,175.371,75.344,167.188z"/>
</svg>
